<?xml version="1.0" encoding="UTF-8" standalone="no"?>

<svg xmlns="http://www.w3.org/2000/svg" viewBox="0 0 3161 1">
  <mask id="form1" maskContentUnits="objectBoundingBox" maskUnits="objectBoundingBox">
    <path d="M 0.4971098265896,0.001074168797954 C 0.46410404624277,0.0053196930946292 0.44508670520231,0.0076726342710997 0.41329479768786,0.019053708439898 0.29199421965318,0.062531969309463 0.19135838150289,0.18918158567775 0.13222543352601,0.28900255754476 0.089624277456647,0.36092071611253 0.046531791907514,0.43306905370844 0.02106936416185,0.51150895140665 0.012196531791908,0.53890025575448 0.0003757225433526,0.58058823529412 0,0.60869565217391 -0.00063583815028902,0.65710997442455 -0.0013294797687861,0.68480818414322 0.018554913294798,0.73145780051151 0.04,0.78171355498721 0.070115606936416,0.81657289002558 0.11271676300578,0.8542199488491 0.20208092485549,0.93319693094629 0.3421098265896,0.98951406649616 0.46820809248555,0.9976726342711 0.46820809248555,0.9976726342711 0.4971098265896,1 0.4971098265896,1 0.52832369942197,1.0003069053708 0.57078034682081,0.99601023017903 0.60115606936416,0.98943734015345 0.80459537572254,0.94547314578005 0.93635838150289,0.76480818414322 0.98078034682081,0.59335038363171 0.99491329479769,0.53879795396419 1.0000867052023,0.48800511508951 1,0.43222506393862 0.99994219653179,0.40644501278772 0.99476878612717,0.37324808184143 0.98901734104046,0.34782608695652 0.95763005780347,0.20887468030691 0.86254335260116,0.10606138107417 0.71965317919075,0.042838874680307 0.65508670520231,0.014271099744246 0.56971098265896,-0.0067263427109974 0.4971098265896,0.001074168797954 Z" fill="#ffffff" />
  </mask>

</svg>
