<?xml version="1.0" encoding="UTF-8" standalone="no" ?>

<svg xmlns="http://www.w3.org/2000/svg" xmlns:xlink="http://www.w3.org/1999/xlink" viewBox=" 0 0 1 1" width="100" height="100">

  <!-- Webkit -->
  <path id="maskpath" d="M 0.3601108033241,0.0012923076923077 C 0.3601108033241,0.0012923076923077 0.31301939058172,0.0080307692307692 0.31301939058172,0.0080307692307692 0.24609418282548,0.021538461538462 0.18202216066482,0.054461538461538 0.13321329639889,0.10790769230769 0.04409972299169,0.20550769230769 0.0071468144044321,0.34172307692308 0.00024930747922438,0.47692307692308 -0.00041551246537396,0.49012307692308 0.0018005540166205,0.49578461538462 0.0028808864265928,0.50769230769231 0.0028808864265928,0.50769230769231 0.0028808864265928,0.53538461538462 0.0028808864265928,0.53538461538462 0.0054847645429363,0.56138461538462 0.010831024930748,0.59329230769231 0.017036011080332,0.61846153846154 0.040775623268698,0.71476923076923 0.086232686980609,0.79735384615385 0.14958448753463,0.86769230769231 0.21722991689751,0.9428 0.30667590027701,0.99873846153846 0.40443213296399,1 0.50706371191136,1.0013230769231 0.60434903047091,0.95267692307692 0.68975069252078,0.8936 0.81609418282548,0.80621538461538 0.94711911357341,0.67169230769231 0.98775623268698,0.50769230769231 1.0016897506925,0.45138461538462 1.0000831024931,0.41963076923077 1,0.36307692307692 0.99997229916898,0.33495384615385 0.99493074792244,0.30701538461538 0.9881163434903,0.28 0.98227146814404,0.25692307692308 0.97326869806094,0.22981538461538 0.96232686980609,0.20923076923077 0.89617728531856,0.085015384615385 0.76681440443213,0.0536 0.64819944598338,0.028892307692308 0.64819944598338,0.028892307692308 0.53739612188366,0.0087692307692308 0.53739612188366,0.0087692307692308 0.48842105263158,0.0022461538461538 0.4082271468144,-0.0052 0.3601108033241,0.0012923076923077 Z" fill="white" />

  <!-- Firefox -->
  <mask id="form2" maskContentUnits="objectBoundingBox" maskUnits="objectBoundingBox">
    <use xlink:href="#maskpath" />
  </mask>

</svg>
